<?xml version="1.0" standalone="no"?>
<!DOCTYPE svg PUBLIC "-//W3C//DTD SVG 20010904//EN"
 "http://www.w3.org/TR/2001/REC-SVG-20010904/DTD/svg10.dtd">
<svg version="1.0" xmlns="http://www.w3.org/2000/svg"
 width="1184.000000pt" height="1184.000000pt" viewBox="0 0 1184.000000 1184.000000"
 preserveAspectRatio="xMidYMid meet">
<metadata>
Created by potrace 1.14, written by Peter Selinger 2001-2017
</metadata>
<g transform="translate(0.000000,1184.000000) scale(0.100000,-0.100000)"
fill="#000000" stroke="none">
<path d="M1726 11823 c-53 -14 -119 -69 -156 -133 -13 -22 -15 -352 -17 -2785
-2 -2324 -1 -2766 11 -2800 16 -46 98 -135 124 -135 10 0 23 -5 30 -12 10 -10
334 -13 1455 -14 793 -1 1446 -2 1451 -3 13 -2 1 -24 -81 -148 -43 -65 -80
-122 -82 -128 -4 -9 -6 -12 -44 -56 -12 -15 -33 -42 -47 -60 -34 -45 -124
-143 -184 -198 -130 -123 -150 -141 -155 -141 -3 0 -19 -12 -36 -28 -51 -47
-366 -272 -381 -272 -3 0 -20 -11 -38 -25 -18 -14 -38 -25 -44 -25 -7 0 -12
-4 -12 -10 0 -5 -6 -10 -13 -10 -7 0 -35 -15 -62 -33 -28 -18 -69 -41 -92 -52
-24 -11 -43 -23 -43 -27 0 -5 -4 -8 -10 -8 -5 0 -49 -19 -97 -41 -49 -23 -92
-42 -98 -43 -5 -2 -27 -10 -49 -19 -21 -9 -40 -17 -42 -17 -1 0 -13 -4 -26 -9
-13 -5 -25 -9 -28 -9 -3 0 -30 -10 -60 -22 -30 -12 -68 -24 -85 -27 -16 -3
-41 -11 -55 -18 -14 -7 -43 -16 -65 -20 -45 -9 -54 -12 -57 -15 -4 -2 -37 -10
-63 -15 -11 -2 -20 -4 -20 -5 0 -2 -20 -6 -65 -14 -19 -4 -48 -11 -65 -16 -16
-5 -46 -11 -65 -14 -19 -3 -46 -8 -60 -11 -14 -3 -43 -8 -64 -10 -21 -3 -42
-7 -45 -9 -3 -3 -33 -7 -66 -11 -33 -4 -71 -9 -85 -10 -14 -2 -47 -6 -75 -9
-27 -3 -70 -8 -95 -11 -25 -3 -67 -8 -93 -11 -26 -2 -60 -9 -74 -15 -44 -16
-103 -69 -126 -113 l-22 -41 -2 -1685 c-3 -1539 -2 -1690 13 -1727 15 -38 55
-87 97 -121 20 -15 116 -41 138 -37 9 2 61 6 115 9 55 4 115 8 134 10 19 3 64
8 100 11 36 4 67 8 70 10 3 2 34 6 70 10 36 4 67 8 70 10 3 2 24 6 46 9 22 4
51 9 64 11 14 3 39 8 55 11 17 2 46 9 65 14 19 5 46 11 60 14 72 13 309 79
440 123 109 37 401 153 430 172 13 9 27 15 30 15 7 -2 235 111 295 147 28 16
61 35 75 42 14 6 69 39 124 72 54 33 107 65 118 71 11 6 30 21 44 33 13 11 28
21 33 21 5 0 16 6 23 13 7 7 37 28 65 47 29 18 53 37 53 42 0 4 7 8 15 8 9 0
18 7 21 15 4 8 10 15 15 15 11 0 129 89 146 110 7 8 13 12 13 8 0 -4 15 6 33
22 17 16 70 62 117 101 47 40 92 80 101 90 9 11 19 19 22 19 3 0 53 46 112
103 58 57 113 110 123 118 54 49 335 358 435 479 15 18 184 231 194 245 5 6
25 32 46 58 21 26 36 47 33 47 -3 0 8 15 25 32 16 18 29 38 29 44 0 7 4 14 8
16 4 1 23 26 42 53 19 28 37 52 40 55 3 3 23 32 45 65 22 33 43 62 48 63 4 2
7 7 7 12 0 7 53 92 78 125 25 34 62 96 62 105 0 5 3 10 8 10 4 0 19 21 32 47
14 27 31 52 38 56 6 4 12 12 12 17 0 5 20 43 45 83 25 41 45 79 45 85 0 6 4
12 8 14 5 2 23 29 40 61 79 143 97 175 118 212 13 22 79 150 146 285 68 135
128 248 133 252 6 4 7 8 3 8 -4 0 7 28 24 62 18 35 33 65 33 68 1 3 16 37 34
75 18 39 40 88 49 110 8 22 21 49 29 60 7 11 13 27 13 37 0 10 4 18 9 18 5 0
11 10 14 22 8 35 71 183 80 186 4 2 7 10 7 18 0 8 9 33 19 57 43 94 249 631
254 662 1 6 4 12 7 15 3 3 13 30 23 60 10 30 27 78 37 105 10 28 39 118 65
200 26 83 52 164 58 180 7 17 12 35 13 40 4 18 45 170 51 185 7 18 10 29 16
55 3 11 11 40 18 65 14 49 15 53 22 90 3 14 19 80 36 147 17 67 32 132 35 145
2 13 10 46 16 73 14 59 18 78 26 125 4 19 9 39 12 44 3 5 6 21 8 35 1 14 5 37
9 51 3 14 8 41 11 60 3 19 8 38 9 41 2 3 7 28 11 55 3 27 9 53 12 58 3 5 6 23
8 40 1 17 7 56 12 86 6 30 14 71 17 90 3 19 8 49 11 65 19 109 44 267 49 304
3 23 7 55 10 70 3 15 7 44 10 64 3 20 7 54 11 75 3 20 7 51 8 67 2 17 8 57 12
90 4 33 8 72 9 88 0 15 2 27 5 27 3 0 5 10 6 23 0 22 9 106 19 182 16 131 20
164 29 265 3 36 8 85 11 110 3 25 8 72 10 105 3 33 7 83 10 110 13 142 16 177
21 241 3 38 7 98 9 134 2 36 7 99 9 140 3 41 8 116 10 165 3 50 8 133 11 185
14 213 27 630 29 875 0 186 -1 203 -21 240 -23 43 -59 81 -108 111 -28 18
-115 19 -3185 20 -1735 1 -3164 0 -3174 -3z m1399 -2203 c257 -67 531 -183
740 -315 50 -31 92 -61 93 -66 2 -5 10 -9 17 -9 7 0 15 -4 17 -8 2 -4 23 -23
48 -42 24 -19 54 -44 66 -55 11 -11 32 -29 45 -41 13 -12 31 -30 40 -40 9 -10
29 -31 45 -45 65 -58 314 -365 314 -388 0 -8 -1536 -8 -1544 0 -7 6 -7 4 -6
207 1 83 -1 156 -5 161 -3 5 -1 11 4 13 6 2 7 17 2 41 -5 20 -5 39 0 42 4 3 4
17 -1 30 -5 14 -6 25 -2 25 8 0 7 64 -2 86 -3 7 -2 15 1 18 6 6 6 204 0 264
-2 17 0 32 3 32 3 0 4 27 2 60 l-3 61 28 -7 c15 -3 60 -14 98 -24z"/>
<path d="M8130 8265 c-4 -11 -10 -46 -14 -78 -3 -32 -8 -62 -10 -66 -3 -4 -8
-29 -11 -57 -10 -71 -11 -74 -23 -134 -6 -30 -13 -68 -16 -85 -3 -16 -7 -40
-10 -51 -2 -12 -7 -37 -10 -55 -10 -61 -58 -294 -80 -389 -8 -36 -18 -80 -21
-99 -3 -19 -8 -37 -10 -41 -2 -3 -6 -18 -8 -31 -3 -14 -17 -74 -32 -133 -15
-60 -28 -113 -29 -120 -2 -6 -8 -31 -15 -56 -7 -25 -15 -56 -18 -69 -2 -14 -6
-28 -9 -33 -3 -4 -7 -16 -9 -25 -11 -55 -79 -280 -87 -290 -5 -7 -7 -17 -4
-22 4 -5 2 -12 -3 -15 -4 -3 -12 -20 -16 -38 -10 -43 -9 -41 -39 -125 -13 -40
-22 -73 -18 -73 4 0 2 -4 -3 -8 -6 -4 -16 -25 -23 -47 -25 -73 -122 -338 -143
-390 -7 -16 -13 -32 -14 -35 -7 -30 -29 -87 -36 -94 -5 -6 -9 -16 -9 -24 0 -8
-6 -28 -14 -45 -26 -60 -41 -102 -38 -109 1 -5 -2 -8 -8 -8 -5 0 -10 -6 -10
-12 0 -11 -72 -193 -122 -308 -11 -25 -26 -60 -34 -77 -29 -68 -43 -100 -73
-165 -41 -90 -64 -142 -66 -148 -12 -45 -320 -655 -427 -847 -28 -51 -184
-320 -201 -347 -7 -11 -28 -45 -47 -75 -19 -31 -33 -59 -32 -63 1 -5 -2 -8 -6
-8 -5 0 -18 -18 -31 -40 l-22 -39 36 -83 c82 -188 277 -584 333 -678 11 -19
33 -57 47 -85 32 -62 63 -113 140 -240 33 -53 64 -106 70 -116 5 -11 13 -19
17 -19 5 0 8 -5 8 -10 0 -16 150 -235 272 -397 119 -158 116 -155 155 -199 16
-17 46 -53 68 -80 124 -149 375 -401 530 -529 33 -28 62 -53 65 -56 9 -10 249
-189 254 -189 2 0 40 -24 83 -54 44 -29 99 -65 124 -78 24 -14 62 -35 84 -48
77 -44 256 -130 342 -166 49 -19 97 -39 108 -44 11 -4 49 -18 85 -30 36 -12
74 -26 85 -30 11 -4 38 -13 60 -19 22 -5 51 -14 65 -18 14 -4 30 -8 35 -9 6
-2 21 -6 35 -9 14 -4 31 -7 38 -7 6 -1 12 -4 12 -8 0 -3 10 -6 23 -7 12 0 56
-7 97 -16 97 -21 126 -26 175 -32 22 -3 56 -8 75 -10 72 -11 187 -19 265 -19
87 1 120 13 155 56 46 60 44 21 53 841 3 208 7 381 11 384 3 3 1 13 -4 23 -5
10 -7 20 -4 23 3 3 8 175 10 384 2 208 6 491 8 628 3 138 0 266 -5 286 -12 49
-43 85 -91 110 -37 19 -62 21 -347 24 -168 3 -481 7 -696 10 -214 4 -396 6
-402 6 -26 -2 -41 -2 -193 3 -189 5 -175 3 -160 21 7 8 10 15 7 15 -6 0 31 61
52 86 4 5 14 20 20 33 12 22 34 50 59 77 7 8 11 14 8 14 -15 0 219 239 298
305 27 22 54 46 62 53 7 6 17 12 23 12 6 0 11 4 11 8 0 8 165 132 175 132 3 0
11 5 18 10 35 30 156 102 262 155 66 33 123 65 127 70 4 6 8 6 8 1 0 -4 11 -1
25 8 14 9 25 14 25 11 0 -3 13 1 29 9 16 9 75 31 132 51 90 31 129 43 199 59
16 4 132 22 191 30 69 10 135 58 155 113 11 31 13 393 14 2061 0 1893 -1 2026
-17 2060 -19 39 -47 72 -62 72 -5 0 -11 5 -13 11 -2 6 -16 12 -31 12 -15 1
-27 4 -27 7 0 3 -453 5 -1006 5 -997 0 -1006 0 -1014 -20z m1100 -1973 l0
-387 -570 0 c-313 0 -570 3 -570 6 0 9 100 141 150 199 37 43 140 150 144 150
2 0 23 18 47 40 88 81 276 196 414 252 83 34 98 41 110 44 6 1 35 12 66 23 31
11 67 22 80 25 21 4 120 32 127 35 1 0 2 -173 2 -387z"/>
</g>
</svg>
