<?xml version="1.0" encoding="UTF-8"?>
<svg id="Layer_2" data-name="Layer 2" xmlns="http://www.w3.org/2000/svg" viewBox="0 0 419.74 513.64">
  <defs>
    <style>
      .cls-1 {
        fill: #fa493c;
      }

      .cls-2 {
        fill: #fdc9e2;
      }

      .cls-3 {
        fill: #fefefe;
      }

      .cls-4 {
        fill: #8f2512;
      }
    </style>
  </defs>
  <g id="Layer_1-2" data-name="Layer 1">
    <g id="U0RMZt.tif">
      <g>
        <path d="M350.12,265.5c3.91,4.91,8.41,9.29,12.61,13.94,4.16,4.6,8.41,9.13,12.61,13.7,.54,.58,1.34,1.05,1.15,2.06-.61,.55-1.25,1.07-1.81,1.66-13.35,13.99-26.69,27.99-40.03,41.99-5.25-5.69-10.49-11.37-15.74-17.06-9.32-10.34-18.65-20.69-28-31.06-.86,.83-.6,1.54-.6,2.16-.02,17.98-.02,35.97,0,53.95,0,.74,.16,1.48,.24,2.21-.08,1.07-.22,2.15-.22,3.22-.01,38.19,0,76.37-.01,114.56,0,1.15,0,2.29,0,3.42-32.82,1.62-78.97-22.74-87.59-76.72-2.31,14.61-7.14,27.42-15.42,38.81-.59-.82-.36-1.77-.36-2.66-.01-12.74,0-25.47-.01-38.21-.01-10.15-.06-20.31-.1-30.46,3.28-5.02,6.02-10.26,6.94-16.29,2.92-12.76,5.84-25.52,8.78-38.36-12.14-2.95-23.83-5.8-35.5-8.64-.9,1.62-.67,3.37-1.71,4.64-.69-.22-1.38-.43-2.06-.65-11.67-10.02-25.23-15.3-40.56-15.48-26-.3-45.58,11.08-59.06,33.23-3.4,5.59-4.94,11.94-7.5,17.88-1.21-.88-2.34-1.91-3.64-2.61-11.53-6.17-19.03-15.58-22.71-28.09,.05-.54,.12-1.09-.52-1.37,0,0,.03,.1,.03,.1-.06-.9-.03-1.82-.18-2.71-.74-4.47-.87-8.96-.06-13.42,2.5-13.74,5.1-27.45,7.64-41.18,4.09-22.07,8.23-44.12,12.24-66.2,2-11.01,11.56-21.5,22.36-23.85,16-3.48,32.05-6.76,48.07-10.14,4.48-.95,8.95-1.96,14-3.07-9.23-1.93-15.51-6.62-18.29-14.99-3.65-11.04,.15-19.84,9.28-26.7-2.74-8.65-5.32-17.25-8.74-25.55-3.37-8.16-5.08-16.49-3.93-25.32,.59-4.48,2.03-8.71,3.57-12.92,4.81-9.14,11.4-16.6,20.9-20.97,5.11-2.35,10.5-4.1,15.78-6.1,9.47-3.59,18.94-7.16,28.42-10.74,12.86-4.85,26.7,2.42,30.03,15.74,1.06,4.24,.42,8.41-.38,12.58-1.56,2.62-2.7,5.5-4.83,7.77-2.61,2.17-5.15,4.45-8.35,5.75-6.08,2.46-12.17,4.88-18.25,7.33-4.6,1.85-9.19,3.72-13.9,5.63,.4,1.04,.72,1.88,1.04,2.72,2.48,6.69,5.28,13.27,7.07,20.19,1.13,4.37,.78,8.64-2.48,12.16-2.79,3.01-6.38,4.64-10.33,5.84-1.73-2.58-3.22-5.19-5.08-7.49-3.16-3.9-8.38-4.98-12.88-2.96-4.26,1.91-6.92,6.59-6.36,11.16,.62,4.99,4.17,8.7,9.12,9.56,.73,.13,1.44,.29,2.62,.53,0,11.31,0,22.6,0,33.89-.81,.84,0,1.55,.26,2.22,3.07,8.24,6.13,16.48,9.34,24.67,1.35,3.46,2.29,7.1,4.19,10.34,.92,3.82,2.41,7.42,4.13,10.93-.11,1.05,.45,1.94,.79,2.85,11.89,31.48,23.8,62.95,35.73,94.41,.27,.71,.25,1.69,1.31,2.08,.11-.51,.26-.97,.3-1.45,.6-6.88,1.19-13.76,1.78-20.64,1.56-18.41,3.16-36.81,4.64-55.23,.57-7.04,1.49-14.06,1.53-21.14,.84-4.23,.89-8.54,1.27-12.82,.71-8.2,1.49-16.39,2.11-24.6,.48-6.38,1.4-12.72,1.43-19.14,.16-.71,.33-1.41,.49-2.12,3.34,.66,6.69,1.28,10.02,1.99,22.83,4.87,45.71,9.58,68.48,14.71,12.85,2.9,20.74,11.51,23.48,24.16,5.11,23.55,9.65,47.22,14.49,70.82,.34,1.67,.14,3.59,1.41,4.97,5.14,5.54,10.06,11.3,15.5,16.57Z"/>
        <path class="cls-4" d="M56.17,337.34c2.56-5.93,4.09-12.28,7.5-17.88,13.47-22.14,33.06-33.53,59.06-33.23,15.33,.18,28.89,5.46,40.56,15.48-.33,0-.67,.04-.99,0-18.49-2.53-36.07,8.98-40.69,26.94-3.67,14.27-.22,26.91,10.6,36.87,11.13,10.24,24.27,12.4,38.53,7.32,6.54-2.33,11.59-6.71,16.1-11.82,.03,10.15,.08,20.31,.1,30.46,.02,12.74,0,25.47,.01,38.21,0,.9-.23,1.84,.36,2.66-.73,3.11-.39,6.29-.43,9.43-.46,34.9-25.9,64.84-60.25,70.83-4.1,.72-8.21,1.19-12.72,.99v-81.03l-.69-.15c-1.11,2.78-2.22,5.57-3.31,8.35-11.46,29.05-32.51,47.13-62.82,54.16-15.32,3.56-30.59,2.37-45.51-2.74-.46-.16-.89-.37-1.57-.65,1.23-3.42,2.41-6.76,3.63-10.09,15.16-41.55,30.34-83.09,45.5-124.64,2.36-6.48,4.7-12.97,7.05-19.46Z"/>
        <path class="cls-2" d="M334.64,338.84c13.34-14,26.68-28,40.03-41.99,.56-.59,1.21-1.11,1.81-1.66,10.71-.8,21.45-.26,32.17-.41,.98-.01,2-.24,2.91,.31,2.7,6.34-.28,12.72-7.05,15.12-3.08,1.09-6.32,1.24-9.54,1.54-1.04,.1-2.15-.28-3.29,.45,.34,2.17,2.41,2.88,3.74,3.96,6.69,5.43,13.55,10.66,20.4,15.9,3.71,2.83,4.91,6.19,3.04,9.07-2.45,3.79-6.9,4.99-10.88,2.75-4.19-2.36-8.26-4.94-12.43-7.35-1.46-.84-2.92-1.79-4.61-2.15-.17,.18-.34,.36-.51,.55,5.57,6.42,11.15,12.84,16.87,19.44-1.79,2.74-4.54,4.2-7.09,5.75-15.05,9.1-34.53,8.14-48.38-2.69-5.56-4.35-9.94-10.02-14.66-15.27-.91-1.01-2.28-1.75-2.54-3.29Z"/>
        <path class="cls-1" d="M29.29,305.27c.65,.27,.58,.82,.52,1.37-.46-.35-.82-.73-.52-1.37Z"/>
        <path class="cls-2" d="M205.21,37.61c4.87,7.95,6.23,17.12,8.87,25.83,3.32,10.97,6.23,22.06,9.39,33.07,3.46,12.06,1.65,23.17-5.8,33.32-.54,.74-1.18,1.43-.94,2.46-.16,.71-.33,1.41-.49,2.12-.74-.31-.16-1.29-1.01-1.75-2.49,3.11-6.1,4.94-9.08,7.57-3.11,2.74-6.5,5.19-9.39,8.13-2.36,2.4-5.6,3.94-7.11,7.17-2.99,.55-3.98,3.76-6.7,4.98-.76-.41-1.62-.85-2.46-1.34-1.46-.85-2.68-2.19-4.55-2.14-.14-.61-.54-.9-1.1-1.21-4.49-2.49-8.9-5.14-13.42-7.57-4.51-2.42-9.06-4.79-13.98-6.32v-33.89c-1.18-.24-1.9-.4-2.62-.53-4.95-.86-8.5-4.57-9.12-9.56-.57-4.57,2.1-9.25,6.36-11.16,4.5-2.02,9.72-.94,12.88,2.96,1.86,2.3,3.35,4.9,5.08,7.49,3.95-1.21,7.54-2.84,10.33-5.84,3.26-3.52,3.61-7.79,2.48-12.16-1.79-6.92-4.58-13.5-7.07-20.19-.31-.84-.64-1.68-1.04-2.72,4.71-1.91,9.3-3.78,13.9-5.63,6.08-2.45,12.17-4.87,18.25-7.33,3.2-1.3,5.74-3.57,8.35-5.75Z"/>
        <path class="cls-2" d="M186.83,361.01c-4.51,5.11-9.57,9.49-16.1,11.82-14.26,5.08-27.4,2.92-38.53-7.32-10.82-9.96-14.26-22.6-10.6-36.87,4.62-17.96,22.2-29.46,40.69-26.94,.32,.04,.66,0,.99,0,.69,.22,1.38,.43,2.06,.65-.1,.82-.12,1.66-.32,2.45-1.59,6.52-3.2,13.02-4.82,19.53-.18,.71-.63,1.39-.07,2.1,.17,.07,.33,.19,.47,.17,10.55-1.19,19.91,1.19,27.45,9.11,2.51,2.63,3.75,6.04,5.71,9-.91,6.03-3.66,11.27-6.94,16.29Z"/>
        <path class="cls-3" d="M211.44,190.96c-.04,7.08-.97,14.1-1.53,21.14-1.48,18.41-3.08,36.82-4.64,55.23-.58,6.88-1.17,13.76-1.78,20.64-.04,.48-.2,.94-.3,1.45-1.06-.39-1.04-1.36-1.31-2.08-11.93-31.46-23.84-62.93-35.73-94.41-.35-.92-.9-1.8-.79-2.86,.97-.71,1.48-1.78,2.12-2.74,5.31-7.96,10.6-15.92,16.21-24.33,1.27,1.41,2.32,2.69,3.49,3.86,8.08,8.04,16.18,16.06,24.27,24.09Z"/>
        <path class="cls-3" d="M193.77,344.72c-1.96-2.96-3.21-6.37-5.71-9-7.54-7.92-16.89-10.3-27.45-9.11-.14,.02-.3-.1-.47-.17-.55-.71-.1-1.39,.07-2.1,1.62-6.51,3.23-13.01,4.82-19.53,.19-.8,.22-1.63,.32-2.45,1.04-1.27,.8-3.01,1.71-4.64,11.67,2.84,23.36,5.68,35.5,8.64-2.94,12.84-5.86,25.6-8.78,38.36Z"/>
        <path class="cls-4" d="M211.44,190.96c-8.09-8.03-16.19-16.04-24.27-24.09-1.17-1.16-2.21-2.44-3.49-3.86-5.6,8.41-10.9,16.37-16.21,24.33-.64,.96-1.15,2.03-2.12,2.74-1.72-3.51-3.21-7.11-4.13-10.93,4.91-7.38,9.81-14.75,14.72-22.13,1.88-.05,3.1,1.29,4.55,2.14,.84,.49,1.7,.93,2.46,1.34,2.72-1.22,3.71-4.43,6.7-4.98,7.26,7.31,14.51,14.62,21.78,21.91,.33,.33,.84,.47,1.27,.7-.38,4.28-.43,8.59-1.27,12.82Z"/>
        <path class="cls-3" d="M212.71,178.13c-.43-.23-.94-.37-1.27-.7-7.27-7.29-14.52-14.6-21.78-21.91,1.51-3.23,4.75-4.77,7.11-7.17,2.89-2.94,6.29-5.39,9.39-8.13,2.98-2.63,6.59-4.46,9.08-7.57,.85,.46,.27,1.44,1.01,1.75-.03,6.41-.94,12.76-1.43,19.14-.62,8.21-1.4,16.4-2.11,24.6Z"/>
        <path class="cls-3" d="M175.94,157.02c-4.91,7.38-9.81,14.75-14.72,22.13-1.9-3.24-2.83-6.88-4.19-10.34-3.2-8.19-6.27-16.43-9.34-24.67-.25-.67-1.06-1.39-.26-2.22,4.92,1.53,9.47,3.9,13.98,6.32,4.53,2.43,8.93,5.07,13.42,7.57,.56,.31,.96,.6,1.1,1.21Z"/>
      </g>
    </g>
  </g>
</svg>