<?xml version="1.0" encoding="UTF-8"?>
<svg id="Layer_1" data-name="Layer 1" xmlns="http://www.w3.org/2000/svg" viewBox="0 0 424.75 1426.32">
  <path d="M219.26,817.54h.07c63.7-43.52,130.43-66.18,174.98-70.17,16.73-1.52,30.44-13.63,30.44-30.44V30.44c0-16.8-13.63-30.44-30.44-30.44H0V1260.71c101.9,93.12,228.68,157.93,386.6,165.57,17.28,.83,31.81-12.74,32.02-30.02l5.72-414.48c.21-16.04-11.98-29.54-27.96-30.78l-300.58-4.27s26.17-62.73,123.47-129.19ZM43.52,409.53s35.46-56.54,88.08-89.38c52.61-32.85,109.15-43.38,109.15-43.38v132.77H43.52Z"/>
</svg>