<svg width="364" height="95" viewBox="0 0 364 95" fill="none" xmlns="http://www.w3.org/2000/svg">
<path d="M16.2 44L14.55 36.5H8.15L6.5 44H1.5L9.15 9H13.55L21.2 44H16.2ZM11.25 18.75L8.65 32.05H13.95L11.25 18.75ZM24.7031 9H32.1531C32.6865 9 33.2531 9.01666 33.8531 9.05C34.4531 9.08333 35.0531 9.18333 35.6531 9.35C36.2531 9.48333 36.8365 9.71667 37.4031 10.05C38.0031 10.35 38.5865 10.7667 39.1531 11.3C40.2865 12.4667 40.9865 13.7667 41.2531 15.2C41.5531 16.6333 41.7031 18 41.7031 19.3V20.3C41.7031 20.8 41.6865 21.35 41.6531 21.95C41.6198 22.5167 41.5198 23.1167 41.3531 23.75C41.2198 24.3833 41.0031 25.0167 40.7031 25.65C40.4365 26.25 40.0531 26.8333 39.5531 27.4C39.0531 28 38.5031 28.4833 37.9031 28.85C37.3365 29.1833 36.7531 29.45 36.1531 29.65C35.5531 29.85 34.9531 29.9833 34.3531 30.05C33.7531 30.1167 33.1865 30.15 32.6531 30.15H29.7031V44H24.7031V9ZM29.7031 25.65H32.4031C32.8698 25.65 33.4031 25.5833 34.0031 25.45C34.6365 25.2833 35.2198 24.9167 35.7531 24.35C36.2865 23.7833 36.5698 23.2 36.6031 22.6C36.6698 22 36.7031 21.3833 36.7031 20.75V18.45C36.7031 17.85 36.6531 17.1667 36.5531 16.4C36.4531 15.6333 36.0531 14.9667 35.3531 14.4C34.7865 13.9333 34.1531 13.6667 33.4531 13.6C32.7865 13.5333 32.1198 13.5 31.4531 13.5H29.7031V25.65ZM46.1875 9H51.1875L58.0875 28.3H58.2875L64.8375 9H69.8375V44H64.8375V22.1H64.5875L59.3375 37.9H56.6875L51.4375 22.1H51.1875V44H46.1875V9ZM88.0262 44L86.3762 36.5H79.9762L78.3262 44H73.3262L80.9762 9H85.3762L93.0262 44H88.0262ZM83.0762 18.75L80.4762 32.05H85.7762L83.0762 18.75ZM103.279 9C103.646 9 104.096 9.01666 104.629 9.05C105.163 9.08333 105.729 9.16667 106.329 9.3C106.929 9.4 107.529 9.56666 108.129 9.8C108.729 10 109.313 10.3 109.879 10.7C110.679 11.2667 111.296 11.9167 111.729 12.65C112.163 13.35 112.479 14.0667 112.679 14.8C112.879 15.5333 112.996 16.25 113.029 16.95C113.063 17.65 113.079 18.25 113.079 18.75C113.079 19.9167 112.996 20.9333 112.829 21.8C112.663 22.6333 112.246 23.4333 111.579 24.2C111.246 24.6 110.913 24.9333 110.579 25.2C110.246 25.4333 109.946 25.6333 109.679 25.8C110.346 26.1 110.846 26.45 111.179 26.85C111.546 27.25 111.846 27.6333 112.079 28C112.579 28.8667 112.863 29.6167 112.929 30.25C113.029 30.85 113.079 31.5667 113.079 32.4V35.05C113.079 35.4167 113.063 35.9 113.029 36.5C112.996 37.1 112.879 37.7333 112.679 38.4C112.513 39.0667 112.213 39.75 111.779 40.45C111.379 41.15 110.813 41.7833 110.079 42.35C109.513 42.7833 108.746 43.1667 107.779 43.5C106.846 43.8333 105.629 44 104.129 44H96.5293V9H103.279ZM101.529 23.5H103.929C104.796 23.5 105.479 23.3667 105.979 23.1C106.479 22.8 106.863 22.5 107.129 22.2C107.429 21.8333 107.663 21.3833 107.829 20.85C107.996 20.3167 108.079 19.7667 108.079 19.2V17.05C108.079 16.5833 107.979 16.15 107.779 15.75C107.613 15.3167 107.396 14.95 107.129 14.65C106.829 14.35 106.413 14.0833 105.879 13.85C105.379 13.6167 104.713 13.5 103.879 13.5H101.529V23.5ZM101.529 39.5H103.779C104.146 39.5 104.663 39.4333 105.329 39.3C106.029 39.1333 106.646 38.6833 107.179 37.95C107.379 37.65 107.546 37.3333 107.679 37C107.813 36.6333 107.896 36.2833 107.929 35.95C107.996 35.6167 108.029 35.3167 108.029 35.05C108.063 34.7833 108.079 34.5667 108.079 34.4V32.75C108.079 31.8833 107.996 31.15 107.829 30.55C107.663 29.9167 107.296 29.3667 106.729 28.9C105.996 28.3 105.113 28 104.079 28H101.529V39.5ZM123.6 9V30.5L131.85 13V9H136.85V44H131.85V22.5L123.6 40V44H118.6V9H123.6ZM142.867 9H150.317C150.851 9 151.417 9.01666 152.017 9.05C152.617 9.08333 153.217 9.18333 153.817 9.35C154.417 9.48333 155.001 9.71667 155.567 10.05C156.167 10.35 156.751 10.7667 157.317 11.3C158.451 12.4667 159.151 13.7667 159.417 15.2C159.717 16.6333 159.867 18 159.867 19.3V20.3C159.867 20.8 159.851 21.35 159.817 21.95C159.784 22.5167 159.684 23.1167 159.517 23.75C159.384 24.3833 159.167 25.0167 158.867 25.65C158.601 26.25 158.217 26.8333 157.717 27.4C157.217 28 156.667 28.4833 156.067 28.85C155.501 29.1833 154.917 29.45 154.317 29.65C153.717 29.85 153.117 29.9833 152.517 30.05C151.917 30.1167 151.351 30.15 150.817 30.15H147.867V44H142.867V9ZM147.867 25.65H150.567C151.034 25.65 151.567 25.5833 152.167 25.45C152.801 25.2833 153.384 24.9167 153.917 24.35C154.451 23.7833 154.734 23.2 154.767 22.6C154.834 22 154.867 21.3833 154.867 20.75V18.45C154.867 17.85 154.817 17.1667 154.717 16.4C154.617 15.6333 154.217 14.9667 153.517 14.4C152.951 13.9333 152.317 13.6667 151.617 13.6C150.951 13.5333 150.284 13.5 149.617 13.5H147.867V25.65ZM175.902 16.95C175.902 16.5833 175.852 16.2 175.752 15.8C175.652 15.3667 175.485 14.9833 175.252 14.65C175.118 14.4833 174.852 14.2333 174.452 13.9C174.052 13.5667 173.452 13.4 172.652 13.4C171.985 13.4 171.452 13.5167 171.052 13.75C170.652 13.9833 170.318 14.25 170.052 14.55C169.652 15.05 169.402 15.6 169.302 16.2C169.235 16.8 169.202 17.4 169.202 18V35.25C169.202 35.8167 169.218 36.3667 169.252 36.9C169.318 37.4 169.518 37.8833 169.852 38.35C170.018 38.6167 170.302 38.9 170.702 39.2C171.135 39.4667 171.702 39.6 172.402 39.6C172.968 39.6 173.502 39.5 174.002 39.3C174.502 39.1 174.902 38.8 175.202 38.4C175.335 38.2333 175.485 37.9333 175.652 37.5C175.818 37.0667 175.902 36.4167 175.902 35.55V34.3H180.902V35.75C180.902 37.4833 180.668 38.8667 180.202 39.9C179.735 40.9333 179.268 41.6833 178.802 42.15C178.268 42.7167 177.468 43.25 176.402 43.75C175.368 44.25 173.985 44.5 172.252 44.5C170.585 44.5 169.252 44.2333 168.252 43.7C167.285 43.1333 166.518 42.5167 165.952 41.85C165.052 40.7833 164.535 39.7 164.402 38.6C164.268 37.4667 164.202 36.45 164.202 35.55V17.4C164.202 16.2667 164.335 15.0833 164.602 13.85C164.902 12.6167 165.618 11.5167 166.752 10.55C167.518 9.85 168.418 9.33333 169.452 9C170.518 8.66666 171.518 8.5 172.452 8.5C173.518 8.5 174.602 8.7 175.702 9.1C176.802 9.46667 177.735 10.0167 178.502 10.75C179.135 11.3833 179.668 12.2 180.102 13.2C180.535 14.2 180.752 15.3167 180.752 16.55V18.95H175.902V16.95ZM191.129 9V24H193.979C194.746 24 195.362 23.65 195.829 22.95C196.162 22.4833 196.396 21.9167 196.529 21.25C196.662 20.55 196.796 19.5833 196.929 18.35L197.279 15.2C197.379 14.2333 197.546 13.2833 197.779 12.35C198.012 11.3833 198.512 10.5667 199.279 9.9C200.012 9.26666 200.796 8.9 201.629 8.8C202.496 8.66667 203.262 8.6 203.929 8.6H204.679V13.1H204.029C203.829 13.1 203.596 13.15 203.329 13.25C203.096 13.35 202.896 13.4833 202.729 13.65C202.462 13.9167 202.262 14.3167 202.129 14.85C201.996 15.3833 201.862 16.2167 201.729 17.35L201.379 20.7C201.312 21.3667 201.229 22.0167 201.129 22.65C201.062 23.2833 200.912 23.8833 200.679 24.45C200.412 25.0833 200.046 25.5667 199.579 25.9L204.979 44H199.529L195.179 28.5H191.129V44H186.129V9H191.129ZM214.225 9V30.5L222.475 13V9H227.475V44H222.475V22.5L214.225 40V44H209.225V9H214.225ZM238.492 9V30.5L246.742 13V9H251.742V44H246.742V22.5L238.492 40V44H233.492V9H238.492ZM248.742 1.2C248.742 2.2 248.576 3.03333 248.242 3.7C247.942 4.33333 247.609 4.83333 247.242 5.2C246.742 5.66667 246.092 6.01666 245.292 6.25C244.492 6.48333 243.609 6.6 242.642 6.6C241.676 6.6 240.792 6.48333 239.992 6.25C239.192 6.01666 238.542 5.66667 238.042 5.2C237.676 4.83333 237.326 4.33333 236.992 3.7C236.692 3.03333 236.542 2.2 236.542 1.2V0.599998H240.542V1.05C240.542 1.25 240.576 1.48333 240.642 1.75C240.709 1.98333 240.876 2.21666 241.142 2.45C241.376 2.65 241.609 2.78333 241.842 2.85C242.109 2.88333 242.376 2.9 242.642 2.9C242.909 2.9 243.159 2.88333 243.392 2.85C243.659 2.78333 243.909 2.65 244.142 2.45C244.409 2.21666 244.576 1.98333 244.642 1.75C244.709 1.48333 244.742 1.25 244.742 1.05V0.599998H248.742V1.2ZM284.83 9V13.75H278.63V44H273.63V13.75H267.43V9H284.83ZM288.814 9H303.664V13.75H293.814V24.05H302.514V28.55H293.814V39.25H303.814V44H288.814V9ZM320.741 44L319.091 36.5H312.691L311.041 44H306.041L313.691 9H318.091L325.741 44H320.741ZM315.791 18.75L313.191 32.05H318.491L315.791 18.75ZM341.959 9V13.75H335.759V44H330.759V13.75H324.559V9H341.959ZM345.943 9H353.393C353.927 9 354.493 9.01666 355.093 9.05C355.693 9.08333 356.293 9.18333 356.893 9.35C357.493 9.48333 358.077 9.71667 358.643 10.05C359.243 10.35 359.827 10.7667 360.393 11.3C361.527 12.4667 362.227 13.7667 362.493 15.2C362.793 16.6333 362.943 18 362.943 19.3V20.3C362.943 20.8 362.927 21.35 362.893 21.95C362.86 22.5167 362.76 23.1167 362.593 23.75C362.46 24.3833 362.243 25.0167 361.943 25.65C361.677 26.25 361.293 26.8333 360.793 27.4C360.293 28 359.743 28.4833 359.143 28.85C358.577 29.1833 357.993 29.45 357.393 29.65C356.793 29.85 356.193 29.9833 355.593 30.05C354.993 30.1167 354.427 30.15 353.893 30.15H350.943V44H345.943V9ZM350.943 25.65H353.643C354.11 25.65 354.643 25.5833 355.243 25.45C355.877 25.2833 356.46 24.9167 356.993 24.35C357.527 23.7833 357.81 23.2 357.843 22.6C357.91 22 357.943 21.3833 357.943 20.75V18.45C357.943 17.85 357.893 17.1667 357.793 16.4C357.693 15.6333 357.293 14.9667 356.593 14.4C356.027 13.9333 355.393 13.6667 354.693 13.6C354.027 13.5333 353.36 13.5 352.693 13.5H350.943V25.65ZM23.15 84.5V94.4H18.4V89H5.5V94.4H0.75V84.5H3.1C3.66667 83.2667 4.16667 81.9667 4.6 80.6C5.03333 79.2333 5.38333 77.75 5.65 76.15C5.85 74.95 6.01667 73.55 6.15 71.95C6.31667 70.3167 6.43333 68.6167 6.5 66.85C6.56667 65.0833 6.61667 63.3167 6.65 61.55C6.68333 59.75 6.7 58.0833 6.7 56.55V54H20.3V84.5H23.15ZM11.4 58.5V61.25C11.4 63.3833 11.3667 65.3 11.3 67C11.2333 68.6667 11.15 70.1667 11.05 71.5C10.95 72.8333 10.8333 74.0167 10.7 75.05C10.5667 76.05 10.4333 76.9333 10.3 77.7C10.1 78.9 9.83333 80.0667 9.5 81.2C9.2 82.3 8.76667 83.4833 8.2 84.75H15.3V58.5H11.4ZM28.4121 54H35.8621C36.3954 54 36.9621 54.0167 37.5621 54.05C38.1621 54.0833 38.7621 54.1833 39.3621 54.35C39.9621 54.4833 40.5454 54.7167 41.1121 55.05C41.7121 55.35 42.2954 55.7667 42.8621 56.3C43.9954 57.4667 44.6954 58.7667 44.9621 60.2C45.2621 61.6333 45.4121 63 45.4121 64.3V65.3C45.4121 65.8 45.3954 66.35 45.3621 66.95C45.3288 67.5167 45.2288 68.1167 45.0621 68.75C44.9288 69.3833 44.7121 70.0167 44.4121 70.65C44.1454 71.25 43.7621 71.8333 43.2621 72.4C42.7621 73 42.2121 73.4833 41.6121 73.85C41.0454 74.1833 40.4621 74.45 39.8621 74.65C39.2621 74.85 38.6621 74.9833 38.0621 75.05C37.4621 75.1167 36.8954 75.15 36.3621 75.15H33.4121V89H28.4121V54ZM33.4121 70.65H36.1121C36.5788 70.65 37.1121 70.5833 37.7121 70.45C38.3454 70.2833 38.9288 69.9167 39.4621 69.35C39.9954 68.7833 40.2788 68.2 40.3121 67.6C40.3788 67 40.4121 66.3833 40.4121 65.75V63.45C40.4121 62.85 40.3621 62.1667 40.2621 61.4C40.1621 60.6333 39.7621 59.9667 39.0621 59.4C38.4954 58.9333 37.8621 58.6667 37.1621 58.6C36.4954 58.5333 35.8288 58.5 35.1621 58.5H33.4121V70.65ZM62.0945 89L60.4445 81.5H54.0445L52.3945 89H47.3945L55.0445 54H59.4445L67.0945 89H62.0945ZM57.1445 63.75L54.5445 77.05H59.8445L57.1445 63.75ZM72.5977 54H77.5977L84.4977 73.3H84.6977L91.2477 54H96.2477V89H91.2477V67.1H90.9977L85.7477 82.9H83.0977L77.8477 67.1H77.5977V89H72.5977V54ZM109.236 54V68.15H111.686C112.186 68.15 112.72 68.1667 113.286 68.2C113.853 68.2 114.436 68.2667 115.036 68.4C115.636 68.5 116.236 68.6833 116.836 68.95C117.47 69.2167 118.07 69.6167 118.636 70.15C119.17 70.65 119.586 71.1833 119.886 71.75C120.186 72.2833 120.403 72.8167 120.536 73.35C120.67 73.85 120.736 74.3333 120.736 74.8C120.77 75.2333 120.786 75.6167 120.786 75.95V80.05C120.786 80.9167 120.703 81.8333 120.536 82.8C120.403 83.7333 120.003 84.7 119.336 85.7C119.103 86.0667 118.786 86.45 118.386 86.85C118.02 87.2167 117.536 87.5667 116.936 87.9C116.37 88.2 115.653 88.4667 114.786 88.7C113.953 88.9 112.97 89 111.836 89H104.236V54H109.236ZM109.236 84.5H111.486C111.82 84.5 112.22 84.4667 112.686 84.4C113.186 84.3 113.653 84.0833 114.086 83.75C114.553 83.3833 114.953 82.8667 115.286 82.2C115.62 81.5 115.786 80.5333 115.786 79.3V77.4C115.786 76.5333 115.703 75.8 115.536 75.2C115.37 74.5667 115.003 74.0167 114.436 73.55C113.703 72.95 112.82 72.65 111.786 72.65H109.236V84.5ZM129.836 54V89H124.836V54H129.836ZM156.498 54V75.5L164.748 58V54H169.748V89H164.748V67.5L156.498 85V89H151.498V54H156.498ZM196.436 54V69H199.286C200.052 69 200.669 68.65 201.136 67.95C201.469 67.4833 201.702 66.9167 201.836 66.25C201.969 65.55 202.102 64.5833 202.236 63.35L202.586 60.2C202.686 59.2333 202.852 58.2833 203.086 57.35C203.319 56.3833 203.819 55.5667 204.586 54.9C205.319 54.2667 206.102 53.9 206.936 53.8C207.802 53.6667 208.569 53.6 209.236 53.6H209.986V58.1H209.336C209.136 58.1 208.902 58.15 208.636 58.25C208.402 58.35 208.202 58.4833 208.036 58.65C207.769 58.9167 207.569 59.3167 207.436 59.85C207.302 60.3833 207.169 61.2167 207.036 62.35L206.686 65.7C206.619 66.3667 206.536 67.0167 206.436 67.65C206.369 68.2833 206.219 68.8833 205.986 69.45C205.719 70.0833 205.352 70.5667 204.886 70.9L210.286 89H204.836L200.486 73.5H196.436V89H191.436V54H196.436ZM215.599 63.2C215.599 61.8667 215.732 60.5833 215.999 59.35C216.265 58.0833 216.999 56.8833 218.199 55.75C218.965 55.05 219.849 54.5 220.849 54.1C221.882 53.7 223.049 53.5 224.349 53.5C225.649 53.5 226.799 53.7 227.799 54.1C228.832 54.5 229.732 55.05 230.499 55.75C231.699 56.8833 232.432 58.0833 232.699 59.35C232.965 60.5833 233.099 61.8667 233.099 63.2V79.8C233.099 81.1333 232.965 82.4333 232.699 83.7C232.432 84.9333 231.699 86.1167 230.499 87.25C229.732 87.95 228.832 88.5 227.799 88.9C226.799 89.3 225.649 89.5 224.349 89.5C223.049 89.5 221.882 89.3 220.849 88.9C219.849 88.5 218.965 87.95 218.199 87.25C216.999 86.1167 216.265 84.9333 215.999 83.7C215.732 82.4333 215.599 81.1333 215.599 79.8V63.2ZM228.099 62.45C228.099 61.9167 228.032 61.4 227.899 60.9C227.799 60.3667 227.515 59.8667 227.049 59.4C226.782 59.1333 226.415 58.9 225.949 58.7C225.515 58.5 224.982 58.4 224.349 58.4C223.715 58.4 223.165 58.5 222.699 58.7C222.265 58.9 221.915 59.1333 221.649 59.4C221.182 59.8667 220.882 60.3667 220.749 60.9C220.649 61.4 220.599 61.9167 220.599 62.45V80.55C220.599 81.0833 220.649 81.6167 220.749 82.15C220.882 82.65 221.182 83.1333 221.649 83.6C221.915 83.8667 222.265 84.1 222.699 84.3C223.165 84.5 223.715 84.6 224.349 84.6C224.982 84.6 225.515 84.5 225.949 84.3C226.415 84.1 226.782 83.8667 227.049 83.6C227.515 83.1333 227.799 82.65 227.899 82.15C228.032 81.6167 228.099 81.0833 228.099 80.55V62.45ZM240.895 54H245.895L252.795 73.3H252.995L259.545 54H264.545V89H259.545V67.1H259.295L254.045 82.9H251.395L246.145 67.1H245.895V89H240.895V54ZM272.533 54H287.383V58.75H277.533V69.05H286.233V73.55H277.533V84.25H287.533V89H272.533V54ZM313.41 84.5V94.4H308.66V89H295.76V94.4H291.01V84.5H293.36C293.926 83.2667 294.426 81.9667 294.86 80.6C295.293 79.2333 295.643 77.75 295.91 76.15C296.11 74.95 296.276 73.55 296.41 71.95C296.576 70.3167 296.693 68.6167 296.76 66.85C296.826 65.0833 296.876 63.3167 296.91 61.55C296.943 59.75 296.96 58.0833 296.96 56.55V54H310.56V84.5H313.41ZM301.66 58.5V61.25C301.66 63.3833 301.626 65.3 301.56 67C301.493 68.6667 301.41 70.1667 301.31 71.5C301.21 72.8333 301.093 74.0167 300.96 75.05C300.826 76.05 300.693 76.9333 300.56 77.7C300.36 78.9 300.093 80.0667 299.76 81.2C299.46 82.3 299.026 83.4833 298.46 84.75H305.56V58.5H301.66ZM323.672 54V75.5L331.922 58V54H336.922V89H331.922V67.5L323.672 85V89H318.672V54H323.672ZM349.939 54V75.5L358.189 58V54H363.189V89H358.189V67.5L349.939 85V89H344.939V54H349.939Z" fill="black"/>
</svg>
