<svg width="439" height="95" viewBox="0 0 439 95" fill="none" xmlns="http://www.w3.org/2000/svg">
<g clip-path="url(#clip0_0_1)">
<path d="M44.0732 10H1.64647C0.738166 10 0 10.7639 0 11.7038V50.0761C0 51.0161 0.738166 51.7799 1.64647 51.7799L21.1736 51.797C19.7521 54.2959 18.1907 56.7238 12.8617 59.9581C9.01166 62.2952 3.99268 63.0165 1.51475 63.2181C0.650354 63.2891 -0.00823233 64.0444 0.00274411 64.9389V88.085C0.0164647 89.0505 0.801281 89.8115 1.73428 89.7661C24.0906 88.6444 35.2344 65.5864 40.5717 49.5905C45.1516 35.8636 45.673 17.3746 45.7224 11.7152C45.7306 10.7695 44.9897 10 44.0759 10L44.0732 10ZM9.9474 32.9019V25.4762C9.9474 25.4762 13.0016 26.064 15.8445 27.9012C18.6874 29.7385 20.6055 32.9019 20.6055 32.9019H9.9474Z" fill="black"/>
<path d="M51.8145 68.8946C54.3528 67.0999 57.0119 66.1656 58.7873 66.0009C59.4541 65.9385 60.0002 65.4387 60.0002 64.7458V36.4372C60.0002 35.7444 59.4569 35.1821 58.7873 35.1821H45.1353C44.367 40.2197 43.2803 45.385 41.7381 50.0108C39.0517 58.0584 35.9426 64.9332 32.4219 70.6296C36.9277 81.4033 44.7512 93.31 58.48 93.9972C59.1687 94.0312 59.7477 93.4718 59.756 92.7591L59.9837 75.6671C59.992 75.0055 59.5063 74.4489 58.8696 74.3978L46.8916 74.2218C46.8916 74.2218 47.9343 71.6348 51.8118 68.8946H51.8145ZM44.8088 52.0696C44.8088 52.0696 46.222 49.7382 48.3185 48.3837C50.415 47.0292 52.6679 46.5947 52.6679 46.5947V52.0696H44.8088Z" fill="#8F2512"/>
</g>
<path d="M91.2 44L89.55 36.5H83.15L81.5 44H76.5L84.15 9H88.55L96.2 44H91.2ZM86.25 18.75L83.65 32.05H88.95L86.25 18.75ZM99.7031 9H107.153C107.686 9 108.253 9.01666 108.853 9.05C109.453 9.08333 110.053 9.18333 110.653 9.35C111.253 9.48333 111.836 9.71667 112.403 10.05C113.003 10.35 113.586 10.7667 114.153 11.3C115.286 12.4667 115.986 13.7667 116.253 15.2C116.553 16.6333 116.703 18 116.703 19.3V20.3C116.703 20.8 116.686 21.35 116.653 21.95C116.62 22.5167 116.52 23.1167 116.353 23.75C116.22 24.3833 116.003 25.0167 115.703 25.65C115.436 26.25 115.053 26.8333 114.553 27.4C114.053 28 113.503 28.4833 112.903 28.85C112.336 29.1833 111.753 29.45 111.153 29.65C110.553 29.85 109.953 29.9833 109.353 30.05C108.753 30.1167 108.186 30.15 107.653 30.15H104.703V44H99.7031V9ZM104.703 25.65H107.403C107.87 25.65 108.403 25.5833 109.003 25.45C109.636 25.2833 110.22 24.9167 110.753 24.35C111.286 23.7833 111.57 23.2 111.603 22.6C111.67 22 111.703 21.3833 111.703 20.75V18.45C111.703 17.85 111.653 17.1667 111.553 16.4C111.453 15.6333 111.053 14.9667 110.353 14.4C109.786 13.9333 109.153 13.6667 108.453 13.6C107.786 13.5333 107.12 13.5 106.453 13.5H104.703V25.65ZM121.188 9H126.188L133.088 28.3H133.288L139.838 9H144.838V44H139.838V22.1H139.588L134.338 37.9H131.688L126.438 22.1H126.188V44H121.188V9ZM163.026 44L161.376 36.5H154.976L153.326 44H148.326L155.976 9H160.376L168.026 44H163.026ZM158.076 18.75L155.476 32.05H160.776L158.076 18.75ZM178.279 9C178.646 9 179.096 9.01666 179.629 9.05C180.163 9.08333 180.729 9.16667 181.329 9.3C181.929 9.4 182.529 9.56666 183.129 9.8C183.729 10 184.313 10.3 184.879 10.7C185.679 11.2667 186.296 11.9167 186.729 12.65C187.163 13.35 187.479 14.0667 187.679 14.8C187.879 15.5333 187.996 16.25 188.029 16.95C188.063 17.65 188.079 18.25 188.079 18.75C188.079 19.9167 187.996 20.9333 187.829 21.8C187.663 22.6333 187.246 23.4333 186.579 24.2C186.246 24.6 185.913 24.9333 185.579 25.2C185.246 25.4333 184.946 25.6333 184.679 25.8C185.346 26.1 185.846 26.45 186.179 26.85C186.546 27.25 186.846 27.6333 187.079 28C187.579 28.8667 187.863 29.6167 187.929 30.25C188.029 30.85 188.079 31.5667 188.079 32.4V35.05C188.079 35.4167 188.063 35.9 188.029 36.5C187.996 37.1 187.879 37.7333 187.679 38.4C187.513 39.0667 187.213 39.75 186.779 40.45C186.379 41.15 185.813 41.7833 185.079 42.35C184.513 42.7833 183.746 43.1667 182.779 43.5C181.846 43.8333 180.629 44 179.129 44H171.529V9H178.279ZM176.529 23.5H178.929C179.796 23.5 180.479 23.3667 180.979 23.1C181.479 22.8 181.863 22.5 182.129 22.2C182.429 21.8333 182.663 21.3833 182.829 20.85C182.996 20.3167 183.079 19.7667 183.079 19.2V17.05C183.079 16.5833 182.979 16.15 182.779 15.75C182.613 15.3167 182.396 14.95 182.129 14.65C181.829 14.35 181.413 14.0833 180.879 13.85C180.379 13.6167 179.713 13.5 178.879 13.5H176.529V23.5ZM176.529 39.5H178.779C179.146 39.5 179.663 39.4333 180.329 39.3C181.029 39.1333 181.646 38.6833 182.179 37.95C182.379 37.65 182.546 37.3333 182.679 37C182.813 36.6333 182.896 36.2833 182.929 35.95C182.996 35.6167 183.029 35.3167 183.029 35.05C183.063 34.7833 183.079 34.5667 183.079 34.4V32.75C183.079 31.8833 182.996 31.15 182.829 30.55C182.663 29.9167 182.296 29.3667 181.729 28.9C180.996 28.3 180.113 28 179.079 28H176.529V39.5ZM198.6 9V30.5L206.85 13V9H211.85V44H206.85V22.5L198.6 40V44H193.6V9H198.6ZM217.867 9H225.317C225.851 9 226.417 9.01666 227.017 9.05C227.617 9.08333 228.217 9.18333 228.817 9.35C229.417 9.48333 230.001 9.71667 230.567 10.05C231.167 10.35 231.751 10.7667 232.317 11.3C233.451 12.4667 234.151 13.7667 234.417 15.2C234.717 16.6333 234.867 18 234.867 19.3V20.3C234.867 20.8 234.851 21.35 234.817 21.95C234.784 22.5167 234.684 23.1167 234.517 23.75C234.384 24.3833 234.167 25.0167 233.867 25.65C233.601 26.25 233.217 26.8333 232.717 27.4C232.217 28 231.667 28.4833 231.067 28.85C230.501 29.1833 229.917 29.45 229.317 29.65C228.717 29.85 228.117 29.9833 227.517 30.05C226.917 30.1167 226.351 30.15 225.817 30.15H222.867V44H217.867V9ZM222.867 25.65H225.567C226.034 25.65 226.567 25.5833 227.167 25.45C227.801 25.2833 228.384 24.9167 228.917 24.35C229.451 23.7833 229.734 23.2 229.767 22.6C229.834 22 229.867 21.3833 229.867 20.75V18.45C229.867 17.85 229.817 17.1667 229.717 16.4C229.617 15.6333 229.217 14.9667 228.517 14.4C227.951 13.9333 227.317 13.6667 226.617 13.6C225.951 13.5333 225.284 13.5 224.617 13.5H222.867V25.65ZM250.902 16.95C250.902 16.5833 250.852 16.2 250.752 15.8C250.652 15.3667 250.485 14.9833 250.252 14.65C250.118 14.4833 249.852 14.2333 249.452 13.9C249.052 13.5667 248.452 13.4 247.652 13.4C246.985 13.4 246.452 13.5167 246.052 13.75C245.652 13.9833 245.318 14.25 245.052 14.55C244.652 15.05 244.402 15.6 244.302 16.2C244.235 16.8 244.202 17.4 244.202 18V35.25C244.202 35.8167 244.218 36.3667 244.252 36.9C244.318 37.4 244.518 37.8833 244.852 38.35C245.018 38.6167 245.302 38.9 245.702 39.2C246.135 39.4667 246.702 39.6 247.402 39.6C247.968 39.6 248.502 39.5 249.002 39.3C249.502 39.1 249.902 38.8 250.202 38.4C250.335 38.2333 250.485 37.9333 250.652 37.5C250.818 37.0667 250.902 36.4167 250.902 35.55V34.3H255.902V35.75C255.902 37.4833 255.668 38.8667 255.202 39.9C254.735 40.9333 254.268 41.6833 253.802 42.15C253.268 42.7167 252.468 43.25 251.402 43.75C250.368 44.25 248.985 44.5 247.252 44.5C245.585 44.5 244.252 44.2333 243.252 43.7C242.285 43.1333 241.518 42.5167 240.952 41.85C240.052 40.7833 239.535 39.7 239.402 38.6C239.268 37.4667 239.202 36.45 239.202 35.55V17.4C239.202 16.2667 239.335 15.0833 239.602 13.85C239.902 12.6167 240.618 11.5167 241.752 10.55C242.518 9.85 243.418 9.33333 244.452 9C245.518 8.66666 246.518 8.5 247.452 8.5C248.518 8.5 249.602 8.7 250.702 9.1C251.802 9.46667 252.735 10.0167 253.502 10.75C254.135 11.3833 254.668 12.2 255.102 13.2C255.535 14.2 255.752 15.3167 255.752 16.55V18.95H250.902V16.95ZM266.129 9V24H268.979C269.746 24 270.362 23.65 270.829 22.95C271.162 22.4833 271.396 21.9167 271.529 21.25C271.662 20.55 271.796 19.5833 271.929 18.35L272.279 15.2C272.379 14.2333 272.546 13.2833 272.779 12.35C273.012 11.3833 273.512 10.5667 274.279 9.9C275.012 9.26666 275.796 8.9 276.629 8.8C277.496 8.66667 278.262 8.6 278.929 8.6H279.679V13.1H279.029C278.829 13.1 278.596 13.15 278.329 13.25C278.096 13.35 277.896 13.4833 277.729 13.65C277.462 13.9167 277.262 14.3167 277.129 14.85C276.996 15.3833 276.862 16.2167 276.729 17.35L276.379 20.7C276.312 21.3667 276.229 22.0167 276.129 22.65C276.062 23.2833 275.912 23.8833 275.679 24.45C275.412 25.0833 275.046 25.5667 274.579 25.9L279.979 44H274.529L270.179 28.5H266.129V44H261.129V9H266.129ZM289.225 9V30.5L297.475 13V9H302.475V44H297.475V22.5L289.225 40V44H284.225V9H289.225ZM313.492 9V30.5L321.742 13V9H326.742V44H321.742V22.5L313.492 40V44H308.492V9H313.492ZM323.742 1.2C323.742 2.2 323.576 3.03333 323.242 3.7C322.942 4.33333 322.609 4.83333 322.242 5.2C321.742 5.66667 321.092 6.01666 320.292 6.25C319.492 6.48333 318.609 6.6 317.642 6.6C316.676 6.6 315.792 6.48333 314.992 6.25C314.192 6.01666 313.542 5.66667 313.042 5.2C312.676 4.83333 312.326 4.33333 311.992 3.7C311.692 3.03333 311.542 2.2 311.542 1.2V0.599998H315.542V1.05C315.542 1.25 315.576 1.48333 315.642 1.75C315.709 1.98333 315.876 2.21666 316.142 2.45C316.376 2.65 316.609 2.78333 316.842 2.85C317.109 2.88333 317.376 2.9 317.642 2.9C317.909 2.9 318.159 2.88333 318.392 2.85C318.659 2.78333 318.909 2.65 319.142 2.45C319.409 2.21666 319.576 1.98333 319.642 1.75C319.709 1.48333 319.742 1.25 319.742 1.05V0.599998H323.742V1.2ZM359.83 9V13.75H353.63V44H348.63V13.75H342.43V9H359.83ZM363.814 9H378.664V13.75H368.814V24.05H377.514V28.55H368.814V39.25H378.814V44H363.814V9ZM395.741 44L394.091 36.5H387.691L386.041 44H381.041L388.691 9H393.091L400.741 44H395.741ZM390.791 18.75L388.191 32.05H393.491L390.791 18.75ZM416.959 9V13.75H410.759V44H405.759V13.75H399.559V9H416.959ZM420.943 9H428.393C428.927 9 429.493 9.01666 430.093 9.05C430.693 9.08333 431.293 9.18333 431.893 9.35C432.493 9.48333 433.077 9.71667 433.643 10.05C434.243 10.35 434.827 10.7667 435.393 11.3C436.527 12.4667 437.227 13.7667 437.493 15.2C437.793 16.6333 437.943 18 437.943 19.3V20.3C437.943 20.8 437.927 21.35 437.893 21.95C437.86 22.5167 437.76 23.1167 437.593 23.75C437.46 24.3833 437.243 25.0167 436.943 25.65C436.677 26.25 436.293 26.8333 435.793 27.4C435.293 28 434.743 28.4833 434.143 28.85C433.577 29.1833 432.993 29.45 432.393 29.65C431.793 29.85 431.193 29.9833 430.593 30.05C429.993 30.1167 429.427 30.15 428.893 30.15H425.943V44H420.943V9ZM425.943 25.65H428.643C429.11 25.65 429.643 25.5833 430.243 25.45C430.877 25.2833 431.46 24.9167 431.993 24.35C432.527 23.7833 432.81 23.2 432.843 22.6C432.91 22 432.943 21.3833 432.943 20.75V18.45C432.943 17.85 432.893 17.1667 432.793 16.4C432.693 15.6333 432.293 14.9667 431.593 14.4C431.027 13.9333 430.393 13.6667 429.693 13.6C429.027 13.5333 428.36 13.5 427.693 13.5H425.943V25.65ZM98.15 84.5V94.4H93.4V89H80.5V94.4H75.75V84.5H78.1C78.6667 83.2667 79.1667 81.9667 79.6 80.6C80.0333 79.2333 80.3833 77.75 80.65 76.15C80.85 74.95 81.0167 73.55 81.15 71.95C81.3167 70.3167 81.4333 68.6167 81.5 66.85C81.5667 65.0833 81.6167 63.3167 81.65 61.55C81.6833 59.75 81.7 58.0833 81.7 56.55V54H95.3V84.5H98.15ZM86.4 58.5V61.25C86.4 63.3833 86.3667 65.3 86.3 67C86.2333 68.6667 86.15 70.1667 86.05 71.5C85.95 72.8333 85.8333 74.0167 85.7 75.05C85.5667 76.05 85.4333 76.9333 85.3 77.7C85.1 78.9 84.8333 80.0667 84.5 81.2C84.2 82.3 83.7667 83.4833 83.2 84.75H90.3V58.5H86.4ZM103.412 54H110.862C111.395 54 111.962 54.0167 112.562 54.05C113.162 54.0833 113.762 54.1833 114.362 54.35C114.962 54.4833 115.545 54.7167 116.112 55.05C116.712 55.35 117.295 55.7667 117.862 56.3C118.995 57.4667 119.695 58.7667 119.962 60.2C120.262 61.6333 120.412 63 120.412 64.3V65.3C120.412 65.8 120.395 66.35 120.362 66.95C120.329 67.5167 120.229 68.1167 120.062 68.75C119.929 69.3833 119.712 70.0167 119.412 70.65C119.145 71.25 118.762 71.8333 118.262 72.4C117.762 73 117.212 73.4833 116.612 73.85C116.045 74.1833 115.462 74.45 114.862 74.65C114.262 74.85 113.662 74.9833 113.062 75.05C112.462 75.1167 111.895 75.15 111.362 75.15H108.412V89H103.412V54ZM108.412 70.65H111.112C111.579 70.65 112.112 70.5833 112.712 70.45C113.345 70.2833 113.929 69.9167 114.462 69.35C114.995 68.7833 115.279 68.2 115.312 67.6C115.379 67 115.412 66.3833 115.412 65.75V63.45C115.412 62.85 115.362 62.1667 115.262 61.4C115.162 60.6333 114.762 59.9667 114.062 59.4C113.495 58.9333 112.862 58.6667 112.162 58.6C111.495 58.5333 110.829 58.5 110.162 58.5H108.412V70.65ZM137.095 89L135.445 81.5H129.045L127.395 89H122.395L130.045 54H134.445L142.095 89H137.095ZM132.145 63.75L129.545 77.05H134.845L132.145 63.75ZM147.598 54H152.598L159.498 73.3H159.698L166.248 54H171.248V89H166.248V67.1H165.998L160.748 82.9H158.098L152.848 67.1H152.598V89H147.598V54ZM184.236 54V68.15H186.686C187.186 68.15 187.72 68.1667 188.286 68.2C188.853 68.2 189.436 68.2667 190.036 68.4C190.636 68.5 191.236 68.6833 191.836 68.95C192.47 69.2167 193.07 69.6167 193.636 70.15C194.17 70.65 194.586 71.1833 194.886 71.75C195.186 72.2833 195.403 72.8167 195.536 73.35C195.67 73.85 195.736 74.3333 195.736 74.8C195.77 75.2333 195.786 75.6167 195.786 75.95V80.05C195.786 80.9167 195.703 81.8333 195.536 82.8C195.403 83.7333 195.003 84.7 194.336 85.7C194.103 86.0667 193.786 86.45 193.386 86.85C193.02 87.2167 192.536 87.5667 191.936 87.9C191.37 88.2 190.653 88.4667 189.786 88.7C188.953 88.9 187.97 89 186.836 89H179.236V54H184.236ZM184.236 84.5H186.486C186.82 84.5 187.22 84.4667 187.686 84.4C188.186 84.3 188.653 84.0833 189.086 83.75C189.553 83.3833 189.953 82.8667 190.286 82.2C190.62 81.5 190.786 80.5333 190.786 79.3V77.4C190.786 76.5333 190.703 75.8 190.536 75.2C190.37 74.5667 190.003 74.0167 189.436 73.55C188.703 72.95 187.82 72.65 186.786 72.65H184.236V84.5ZM204.836 54V89H199.836V54H204.836ZM231.498 54V75.5L239.748 58V54H244.748V89H239.748V67.5L231.498 85V89H226.498V54H231.498ZM271.436 54V69H274.286C275.052 69 275.669 68.65 276.136 67.95C276.469 67.4833 276.702 66.9167 276.836 66.25C276.969 65.55 277.102 64.5833 277.236 63.35L277.586 60.2C277.686 59.2333 277.852 58.2833 278.086 57.35C278.319 56.3833 278.819 55.5667 279.586 54.9C280.319 54.2667 281.102 53.9 281.936 53.8C282.802 53.6667 283.569 53.6 284.236 53.6H284.986V58.1H284.336C284.136 58.1 283.902 58.15 283.636 58.25C283.402 58.35 283.202 58.4833 283.036 58.65C282.769 58.9167 282.569 59.3167 282.436 59.85C282.302 60.3833 282.169 61.2167 282.036 62.35L281.686 65.7C281.619 66.3667 281.536 67.0167 281.436 67.65C281.369 68.2833 281.219 68.8833 280.986 69.45C280.719 70.0833 280.352 70.5667 279.886 70.9L285.286 89H279.836L275.486 73.5H271.436V89H266.436V54H271.436ZM290.599 63.2C290.599 61.8667 290.732 60.5833 290.999 59.35C291.265 58.0833 291.999 56.8833 293.199 55.75C293.965 55.05 294.849 54.5 295.849 54.1C296.882 53.7 298.049 53.5 299.349 53.5C300.649 53.5 301.799 53.7 302.799 54.1C303.832 54.5 304.732 55.05 305.499 55.75C306.699 56.8833 307.432 58.0833 307.699 59.35C307.965 60.5833 308.099 61.8667 308.099 63.2V79.8C308.099 81.1333 307.965 82.4333 307.699 83.7C307.432 84.9333 306.699 86.1167 305.499 87.25C304.732 87.95 303.832 88.5 302.799 88.9C301.799 89.3 300.649 89.5 299.349 89.5C298.049 89.5 296.882 89.3 295.849 88.9C294.849 88.5 293.965 87.95 293.199 87.25C291.999 86.1167 291.265 84.9333 290.999 83.7C290.732 82.4333 290.599 81.1333 290.599 79.8V63.2ZM303.099 62.45C303.099 61.9167 303.032 61.4 302.899 60.9C302.799 60.3667 302.515 59.8667 302.049 59.4C301.782 59.1333 301.415 58.9 300.949 58.7C300.515 58.5 299.982 58.4 299.349 58.4C298.715 58.4 298.165 58.5 297.699 58.7C297.265 58.9 296.915 59.1333 296.649 59.4C296.182 59.8667 295.882 60.3667 295.749 60.9C295.649 61.4 295.599 61.9167 295.599 62.45V80.55C295.599 81.0833 295.649 81.6167 295.749 82.15C295.882 82.65 296.182 83.1333 296.649 83.6C296.915 83.8667 297.265 84.1 297.699 84.3C298.165 84.5 298.715 84.6 299.349 84.6C299.982 84.6 300.515 84.5 300.949 84.3C301.415 84.1 301.782 83.8667 302.049 83.6C302.515 83.1333 302.799 82.65 302.899 82.15C303.032 81.6167 303.099 81.0833 303.099 80.55V62.45ZM315.895 54H320.895L327.795 73.3H327.995L334.545 54H339.545V89H334.545V67.1H334.295L329.045 82.9H326.395L321.145 67.1H320.895V89H315.895V54ZM347.533 54H362.383V58.75H352.533V69.05H361.233V73.55H352.533V84.25H362.533V89H347.533V54ZM388.41 84.5V94.4H383.66V89H370.76V94.4H366.01V84.5H368.36C368.926 83.2667 369.426 81.9667 369.86 80.6C370.293 79.2333 370.643 77.75 370.91 76.15C371.11 74.95 371.276 73.55 371.41 71.95C371.576 70.3167 371.693 68.6167 371.76 66.85C371.826 65.0833 371.876 63.3167 371.91 61.55C371.943 59.75 371.96 58.0833 371.96 56.55V54H385.56V84.5H388.41ZM376.66 58.5V61.25C376.66 63.3833 376.626 65.3 376.56 67C376.493 68.6667 376.41 70.1667 376.31 71.5C376.21 72.8333 376.093 74.0167 375.96 75.05C375.826 76.05 375.693 76.9333 375.56 77.7C375.36 78.9 375.093 80.0667 374.76 81.2C374.46 82.3 374.026 83.4833 373.46 84.75H380.56V58.5H376.66ZM398.672 54V75.5L406.922 58V54H411.922V89H406.922V67.5L398.672 85V89H393.672V54H398.672ZM424.939 54V75.5L433.189 58V54H438.189V89H433.189V67.5L424.939 85V89H419.939V54H424.939Z" fill="black"/>
<defs>
<clipPath id="clip0_0_1">
<rect width="60" height="84" fill="white" transform="translate(0 10)"/>
</clipPath>
</defs>
</svg>
