<?xml version="1.0" encoding="UTF-8"?>
<svg id="Layer_1" data-name="Layer 1" xmlns="http://www.w3.org/2000/svg" viewBox="0 0 1000 1000">
  <defs>
    <style>
      .cls-1 {
        fill: #a5a5a5;
      }
    </style>
  </defs>
  <path class="cls-1" d="m495.55,885.67c-5.07-1.03-7.98-1.93-10.95-2.15-5.95-.43-12.06.21-17.86-.88-8.13-1.52-9.54-7.04-3.26-12.54,5.78-5.06,12.13-9.53,18.52-13.83,6.08-4.09,10.92-8.18,9.82-16.77-.35-2.76,2.19-6.6,4.48-8.86,6.2-6.11,13.07-11.54,19.49-17.44,4.21-3.87,8.5-7.77,12.04-12.22,9.51-11.97,8.24-22.11-4.15-31.32-6.15-4.57-12.89-8.44-19.7-11.98-26.17-13.56-30.27-26.92-22.6-60.73,4.86-21.4,18.4-38.3,32.38-54.64,3.08-3.6,6.37-7.07,9.03-10.97,3.53-5.19,1.52-9.24-4.65-8.29-9.73,1.5-19.17,4.73-28.84,6.67-41.27,8.26-74.78,32.21-109.54,53.71-26.76,16.56-52.44,35.26-82.27,46.13-15.25,5.56-31.41,8.6-47.06,13.12-5.89,1.7-11.6,4.15-17.16,6.76-1.68.79-2.56,3.28-3.81,4.99,1.76,1.11,3.39,2.9,5.29,3.23,12.45,2.17,25.11,3.39,37.42,6.14,16.6,3.71,32.35,9.58,43.93,23.16,14.64,17.16,15.45,37.01,10.95,57.68-5.06,23.27-16.29,43.63-30.84,62.23-2.34,3-5.74,5.17-8.65,7.72-.84-.67-1.68-1.33-2.52-2,2.13-3.63,3.77-7.68,6.47-10.82,9.51-11.04,16.4-23.16,17.2-38.03.96-17.85-1.11-35.41-9.06-51.48-8.21-16.6-24.37-21.45-41.15-24.65-28.87-5.51-58.03-7.75-87.36-9.35-16.95-.92-33.39-5.6-45.05-19.83-9.4-11.47-10.73-25.29-9.15-38.88,2.57-22.1,2.06-43.19-7.11-64.12-9.1-20.77-6.42-42.92-3.71-64.74.08-.66.76-1.24,1.27-2.01.69.11,1.66-.04,2,.35,9.84,11.41,22.92,11.34,36.37,10.74,8.67-.39,17.38-.15,26.06.23,5.73.25,11.92,2.06,12.01,8.67.07,5.45-1.38,12.12-4.69,16.17-7.31,8.95-18.24,7.45-28.46,6.48-8.15-.78-16.25-2.01-24.41-2.57-2.17-.15-5.53.84-6.38,2.38-.85,1.56.03,5.06,1.39,6.66,7.57,8.93,15.44,17.62,23.36,26.26,15.2,16.59,15.47,31.72.73,48.95-2.27,2.65-4.54,5.31-6.8,7.97-.8.95-1.66,1.87-2.35,2.9-4.71,7.03-3.89,13.04,2.84,18.16,17.06,12.99,36.6,17.81,56.04,8.94,18.34-8.37,35.05-20.42,52.07-31.48,5.28-3.43,3.35-8.14-1.3-11.58-10.16-7.51-18.89-16.41-23.99-28.06-1.91-4.36-1.71-9.64-2.48-14.51,4.66.1,9.41-.32,13.96.43,5.58.91,11,2.82,16.5,4.27,8.38,2.21,11.73.07,12.57-8.49.83-8.4.61-16.95,2.05-25.23,2.29-13.18,8.93-15.66,20.31-8.49,1.34.85,3.02,1.16,5.81.53-1.31-2.03-2.35-4.31-3.98-6.04-5.44-5.84-11.16-11.42-16.64-17.22-6.63-7.01-5.37-13.64,3.91-16.24,6.58-1.84,13.73-1.63,20.63-2.34,3.82-.39,7.64-.8,11.47-1.2.26-.74.53-1.48.79-2.22-3.2-2.41-6.28-5.02-9.64-7.19-12.46-8.04-21.96-18.71-28.22-32.09-1.34-2.87-2.37-7.41-1-9.55,1.15-1.79,6.16-2.04,9.21-1.5,17.53,3.11,34.96,6.83,52.5,9.89,3.29.57,6.93-.93,10.41-1.48-1.03-3.33-1.69-6.85-3.21-9.94-1.4-2.86-3.86-5.18-5.62-7.89-2.77-4.27-5.75-9.49-1.66-13.61,3.32-3.34,8.78-6.33,13.26-6.29,6.18.06,12.53,2.62,18.44,5.02,8.94,3.62,17.55,8.05,26.32,12.08,8.31,3.82,9.92,3.04,11.71-5.61.91-4.4,3.54-6.34,8-5.93,13.12,1.18,26.23,2.66,39.37,3.41,13.68.79,27.4,1.12,41.11,1.16,7.15.02,8.76-2.6,5.19-8.86-4.05-7.11-1.64-11.46,4.19-15.7,10.41-7.58,20.06-17.31,33.87-17.2,12.34.1,24.73,1.76,36.99,3.54,21.75,3.16,39.64,13.65,54.12,30.11,1.23,1.4,3,2.33,6.43,2.72-.86-3.54-1.17-7.33-2.67-10.57-11.4-24.58-31.74-39.09-56.23-48.33-18.66-7.04-37.95-11.4-58.16-10.82-2.85.08-6.68-1.11-8.3-3.12-.99-1.23,1.05-5.35,2.36-7.84,1.73-3.28,4.1-6.23,6.16-9.34,5.62-8.53,3.74-15.48-5.57-20.08-3.33-1.64-6.93-2.75-10.16-4.55-1.57-.87-3.78-3.01-3.55-4.13.36-1.76,2.29-4.06,4-4.54,6.65-1.88,13.55-2.88,20.21-4.75,2.54-.71,4.67-2.9,6.99-4.41-2.09-1.91-3.85-4.59-6.31-5.6-10.07-4.12-20.44-7.51-30.49-11.69-2.64-1.1-4.5-4.06-6.71-6.17,2.42-1.76,4.6-4.13,7.29-5.17,7.36-2.85,15.18-4.58,22.35-7.79,8.48-3.79,8.71-9.87.94-15.05-7.84-5.23-15.98-10.02-23.92-15.12-5.76-3.7-11.32-2.53-16.96.19-10.74,5.18-21.29,10.84-32.31,15.35-16,6.56-26.16,2.91-35.26-11.95-2.97-4.85-5.07-10.23-7.73-15.28-3.72-7.06-4.38-13.17,2.5-19.28,4.74-4.2,2.39-8.65-4.42-10.33-11.5-2.84-23.17-5.26-34.38-9-12.38-4.14-22.88-11.58-32.04-21.1-6.54-6.79-14-12.69-21.04-18.99-1.48-1.33-3.36-2.43-4.34-4.07-13.23-21.92-26.49-43.51-24.64-71.06,2.22-33.19,28.02-64.6,60.6-71.93,20.31-4.58,39.36-1.67,57.53,8.16,10.42,5.64,11.97,5.29,18.94-4.27,21.87-29.94,51.48-48.17,88.02-51.39,51.95-4.58,92.32,17.01,119.91,61.28,5.4,8.67,11.18,16.16,19.83,21.65,2.55,1.62,3.85,5.22,5.72,7.91-2.64,1.56-5.1,3.78-7.95,4.59-20.21,5.73-39.54,13.17-55.65,27.22-10.09,8.8-18.23,19.02-22.56,31.91-.47,1.39-.64,2.9-.74,4.36-.04.64.44,1.31,1.06,2.97,2.59-2.03,5.16-3.49,7-5.58,15.97-18.18,36.66-26.42,60.09-29.51,13.25-1.75,26.75-6.23,39.46.32,10.07,5.2,19.16,12.32,28.58,18.73,8.2,5.58,16.15,11.54,24.43,17,5.8,3.82,11.82,3.64,18.39.87,15.67-6.59,31.58-2.94,46.62,1.82,42.98,13.63,68.98,43.77,78.88,87.21,5.12,22.44,1.38,44.61-5.65,66.7-6.72,21.12-10.82,43.09-15.6,64.79-1.26,5.73,2.92,8.16,8.25,9.32,20.31,4.41,38.33,13.28,53.16,28.13,32.15,32.17,39.59,80.48,19.09,121.03-4.63,9.17-8.68,18.83-11.43,28.7-4.46,16.04-13.96,28.9-23.59,41.85-2.08,2.79-4.71,5.37-6.03,8.5-8.95,21.27-28.36,26.09-47.85,30.75-11.38,2.72-22.67,2.04-33.89-1.31-3.43-1.02-7.12-1.19-10.68-1.75-.39.63-.77,1.25-1.16,1.88,2.3,2.29,4.33,4.95,6.94,6.79,14.13,10,30.49,12.61,47.24,13.75,1.74.12,3.57-.36,5.22.04,2.44.59,4.75,1.72,7.12,2.62-1.29,1.99-2.16,4.56-3.94,5.86-5.6,4.09-7.11,9.57-7.57,16.16-2.94,42.68-33.82,75.38-71.28,83.27-17.91,3.77-35.49,2.63-52.66-4.04-5.63-2.19-10.17-1.82-11.48,5.67-2.27,13.02-13.57,12.42-22.92,14.9-12.72,3.38-24.47-.31-36.38-4.01-8.53-2.65-17.19-4.9-25.89-6.9-2.54-.58-5.41.31-8.13.53-.12.7-.24,1.39-.36,2.09,2.04,1.09,4.01,2.34,6.13,3.24,19.39,8.22,38.85,16.28,58.15,24.71,2.35,1.03,3.86,3.98,5.77,6.04-2.42,1.45-4.72,3.86-7.28,4.18-14.29,1.79-28.72,2.56-42.95,4.65-31.64,4.65-63.48,9.13-89.86,29.68-4.06,3.16-7.55,7.23-10.6,11.4-1.53,2.09-1.48,5.34-2.14,8.06,2.98.48,6.24,2,8.88,1.27,10.23-2.83,20.24-6.47,30.38-9.64,31.52-9.86,63.27-18.68,96.71-18.31,6.95.08,13.97.71,20.79,2,3.01.57,7.82,3.39,7.84,5.24.04,2.94-2.6,7.52-5.25,8.6-11.59,4.73-23.32,9.82-35.5,12.25-28.16,5.62-56.59,9.85-84.94,14.49-37.04,6.06-70.85,21.34-105.13,35.68-22.26,9.32-45.64,15.99-68.62,23.54-2.39.78-5.47-.53-8.23-.87.84-2.91.77-6.83,2.68-8.57,13.24-12.06,26.43-24.25,40.52-35.28,18.01-14.11,36.87-27.12,55.27-40.73,2.45-1.81,4.34-4.37,8.11-8.25Z"/>
  <path class="cls-1" d="m223.92,350.82c.81,15.17-.54,30.07-7.91,43.79-9.99,18.61-23.61,34.44-38.91,48.87-21.04,19.84-42.23,39.53-63.06,59.58-4.98,4.79-9,10.64-13.04,16.29-1.72,2.41-2.38,5.57-4.22,10.13,5.3-.78,8.63-1.15,11.92-1.77,7.81-1.48,15.16-1.34,21.9,3.91,7.12,5.54,9.87,4.92,15.21-2.33.88-1.2,1.43-2.84,2.58-3.6,1.93-1.28,4.72-3.26,6.25-2.66,2.07.82,4.29,3.61,4.72,5.87,2.03,10.82-3.34,18.76-11.32,25.12-7.07,5.63-14.71,7.36-23.57,3.36-12.66-5.7-12.77-5.39-15.84,8-.42,1.84-1.23,3.59-1.66,4.81-7.84-3.04-15.37-5.3-22.25-8.83-5.4-2.77-10.52-6.6-14.82-10.9-5.6-5.61-6.02-12.76-3.14-20.11,6.35-16.17,18.51-27.98,31.61-38.07,46.49-35.8,82.54-80.43,113.27-129.85,2.87-4.61,6.35-8.84,9.54-13.25.92.54,1.83,1.08,2.75,1.63Z"/>
  <path class="cls-1" d="m250.28,372.59c6.29,1.81,13.19,3.66,20.01,5.8,17.21,5.41,32.82,13.77,46.47,25.64,1.5,1.31,2.99,2.65,4.32,4.12,7.06,7.79,6.3,11.18-3.83,12.93-13.64,2.35-24.65,9.84-36.06,16.73-4.67,2.82-9.28,5.85-14.28,7.96-5.83,2.46-9.85.07-9.89-5.79-.09-16.92-5.33-32.57-10.91-48.21-1.32-3.71-2.45-7.52-3.22-11.38-1.04-5.19,2.09-7.15,7.38-7.82Z"/>
  <path class="cls-1" d="m260.03,297.99c-1.77,4.46-3.31,9.02-5.36,13.34-4.15,8.77-2.36,12.75,7.23,14.81,9.87,2.13,19.85,3.82,29.61,6.37,2.87.75,5.16,3.75,7.71,5.72-2.74,1.55-5.3,3.7-8.24,4.56-13.5,3.91-26.44-.53-39.54-2.98-5.32-.99-10.81-1.16-16.23-1.53-4.83-.33-6.75-2.88-4.03-6.81,8.26-11.92,16.98-23.52,25.51-35.25,1.11.58,2.22,1.17,3.33,1.75Z"/>
</svg>