<?xml version="1.0" encoding="UTF-8"?>
<svg id="Layer_1" data-name="Layer 1" xmlns="http://www.w3.org/2000/svg" viewBox="0 0 423.01 1426.32">
  <path d="M0,716.59V30.47C0,13.66,13.66,0,30.47,0H423.01V1258.57c-103.41,94.26-231.82,160-390.92,167.72-17.26,.81-31.79-12.8-32.04-30.06v-413.87c-.2-15.99,11.98-29.5,27.98-30.77,45.85-3.61,138.72-16.5,209.96-58.29,98.61-57.83,127.5-101.25,153.8-145.93l-361.32-.3c-16.81,0-30.47-13.66-30.47-30.47ZM184.06,409.5h197.21s-35.49-56.56-88.1-89.42c-52.6-32.85-109.12-43.36-109.12-43.36v132.78Z"/>
</svg>