<?xml version="1.0" encoding="UTF-8"?>
<svg id="Layer_2" data-name="Layer 2" xmlns="http://www.w3.org/2000/svg" viewBox="0 0 218.65 295.81">
  <defs>
    <style>
      .cls-1 {
        fill: #8f2512;
      }
    </style>
  </defs>
  <g id="Layer_2-2" data-name="Layer 2">
    <g>
      <path d="M160.61,0H6C2.69,0,0,2.69,0,6V141.13c0,3.31,2.69,6,6,6l71.16,.06c-5.18,8.8-10.87,17.35-30.29,28.74-14.03,8.23-32.32,10.77-41.35,11.48-3.15,.25-5.55,2.91-5.51,6.06v81.51c.05,3.4,2.91,6.08,6.31,5.92,81.47-3.95,122.08-85.15,141.53-141.48,16.69-48.34,18.59-113.45,18.77-133.38,.03-3.33-2.67-6.04-6-6.04ZM36.25,80.65v-26.15s11.13,2.07,21.49,8.54c10.36,6.47,17.35,17.61,17.35,17.61H36.25Z"/>
      <path class="cls-1" d="M188.82,207.4c9.25-6.32,18.94-9.61,25.41-10.19,2.43-.22,4.42-1.98,4.42-4.42V93.1c0-2.44-1.98-4.42-4.42-4.42h-49.75c-2.8,17.74-6.76,35.93-12.38,52.22-9.79,28.34-21.12,52.55-33.95,72.61,16.42,37.94,44.93,79.87,94.96,82.29,2.51,.12,4.62-1.85,4.65-4.36l.83-60.19c.03-2.33-1.74-4.29-4.06-4.47l-43.65-.62s3.8-9.11,17.93-18.76Zm-25.53-59.25s5.15-8.21,12.79-12.98c7.64-4.77,15.85-6.3,15.85-6.3v19.28h-28.64Z"/>
    </g>
  </g>
</svg>